<?xml version="1.0" encoding="UTF-8" standalone="no"?>
<!-- Created with Inkscape (http://www.inkscape.org/) -->

<svg
   xmlns:dc="http://purl.org/dc/elements/1.1/"
   xmlns:cc="http://creativecommons.org/ns#"
   xmlns:rdf="http://www.w3.org/1999/02/22-rdf-syntax-ns#"
   xmlns:svg="http://www.w3.org/2000/svg"
   xmlns="http://www.w3.org/2000/svg"
   xmlns:sodipodi="http://sodipodi.sourceforge.net/DTD/sodipodi-0.dtd"
   xmlns:inkscape="http://www.inkscape.org/namespaces/inkscape"
   version="1.1"
   id="svg815"
   width="399.29987"
   height="571.26202"
   viewBox="0 0 399.29987 571.26202"
   sodipodi:docname="dl_pdf.svg"
   inkscape:version="0.92.4 (5da689c313, 2019-01-14)">
  <metadata
     id="metadata821">
    <rdf:RDF>
      <cc:Work
         rdf:about="">
        <dc:format>image/svg+xml</dc:format>
        <dc:type
           rdf:resource="http://purl.org/dc/dcmitype/StillImage" />
        <dc:title></dc:title>
      </cc:Work>
    </rdf:RDF>
  </metadata>
  <defs
     id="defs819" />
  <sodipodi:namedview
     pagecolor="#ffffff"
     bordercolor="#666666"
     borderopacity="1"
     objecttolerance="10"
     gridtolerance="10"
     guidetolerance="10"
     inkscape:pageopacity="0"
     inkscape:pageshadow="2"
     inkscape:window-width="1920"
     inkscape:window-height="1001"
     id="namedview817"
     showgrid="false"
     inkscape:zoom="1.3032258"
     inkscape:cx="209.00946"
     inkscape:cy="303.22408"
     inkscape:window-x="-9"
     inkscape:window-y="-9"
     inkscape:window-maximized="1"
     inkscape:current-layer="g863" />
  <g
     id="g863"
     transform="translate(-200.99054,-41.962073)">
    <path
       style="opacity:1;fill:none;fill-opacity:0.78431373;stroke:#ffffff;stroke-width:30;stroke-linecap:square;stroke-linejoin:round;stroke-miterlimit:4;stroke-dasharray:none;stroke-dashoffset:0;stroke-opacity:1"
       d="M 247.35645,206.10892 V 105.41089 m 0,0 h 331.48513 v 418.69803 h -73.74257 m -186,0 H 247.35645 V 416.07063"
       id="rect825"
       inkscape:connector-curvature="0"
       sodipodi:nodetypes="ccccccccc" />
    <path
       style="opacity:1;fill:#ffffff;fill-opacity:0.98823529;stroke:#ffffff;stroke-width:0;stroke-linecap:round;stroke-linejoin:miter;stroke-miterlimit:4;stroke-dasharray:none;stroke-dashoffset:0;stroke-opacity:1"
       d="M 210.54913,242.29996 V 379.28238 H 486.4007 V 242.29996 Z m 20.51563,17.30664 h 37.58008 c 5.62916,0 10.36567,0.57287 14.21093,1.71875 3.88492,1.10004 7.31396,2.77167 10.28711,5.01758 3.56778,2.70426 6.28332,6.166 8.14649,10.38281 1.90281,4.21681 2.85547,9.28067 2.85547,15.19336 0,4.58349 -0.69457,9.07641 -2.08203,13.47656 -1.38748,4.35432 -3.37055,8.02074 -5.94727,11 -3.52814,4.03347 -7.47141,7.08198 -11.83203,9.14453 -4.32097,2.06257 -9.71218,3.09376 -16.17383,3.09376 h -14.21289 v 33.34374 h -22.83203 z m 83.19336,0 h 32.10937 c 7.21484,0 13.43914,0.70997 18.67188,2.13086 5.23274,1.37505 9.63339,3.34536 13.20117,5.91211 6.10487,4.30848 10.90213,10.12931 14.39062,17.46289 3.52814,7.28774 5.29102,15.88287 5.29102,25.7832 0,9.53366 -1.88245,18.08177 -5.64844,25.64453 -3.76599,7.51694 -8.5234,13.29271 -14.27148,17.32618 -4.32098,3.0251 -9.05748,5.13251 -14.21094,6.32422 -5.15346,1.1917 -11.25818,1.7871 -18.31445,1.7871 h -31.21875 z m 95.08789,0 h 63.44726 v 19.80078 h -40.73242 v 19.04297 h 37.75781 v 19.80078 h -37.75781 v 43.72656 h -22.71484 z m -155.44922,19.11328 v 30.66211 h 6.54102 c 3.88491,0 7.07677,-0.2742 9.57421,-0.82422 2.53709,-0.55002 4.65868,-1.65072 6.36329,-3.30078 1.46675,-1.46671 2.51612,-3.20787 3.15039,-5.22461 0.67391,-2.06256 1.01171,-4.56071 1.01171,-7.49414 0,-2.8876 -0.67365,-5.36321 -2.02148,-7.42578 -1.34783,-2.1084 -2.91337,-3.57536 -4.69727,-4.40039 -2.37851,-1.10004 -4.69744,-1.69544 -6.95703,-1.78711 -2.25959,-0.13751 -5.27307,-0.20508 -9.03906,-0.20508 z m 83.19531,0 v 64.07617 h 5.76758 c 5.43096,0 9.41604,-0.2742 11.95313,-0.82421 2.53708,-0.59585 5.01348,-1.65151 7.43164,-3.16407 4.16241,-2.75009 7.21575,-6.41651 9.1582,-11 1.94246,-4.62932 2.91406,-10.33557 2.91406,-17.11914 0,-6.73773 -1.07027,-12.48903 -3.21094,-17.25586 -2.10102,-4.81265 -5.45231,-8.57112 -10.05078,-11.27539 -2.33887,-1.3292 -4.73555,-2.22329 -7.19336,-2.68164 -2.41816,-0.50419 -6.08634,-0.75586 -11.00195,-0.75586 z"
       id="rect825-6"
       inkscape:connector-curvature="0" />
    <g
       aria-label="PDF"
       transform="matrix(1.2685434,0,0,1.4667163,-92.25674,-123.24955)"
       style="font-style:normal;font-weight:normal;font-size:96px;line-height:1.25;font-family:sans-serif;letter-spacing:0px;word-spacing:0px;fill:#000000;fill-opacity:1;stroke:none"
       id="flowRoot842" />
    <path
       style="opacity:1;fill:#ffffff;fill-opacity:1;stroke:#ffffff;stroke-width:0;stroke-linecap:round;stroke-linejoin:miter;stroke-miterlimit:4;stroke-dasharray:none;stroke-dashoffset:0;stroke-opacity:1"
       d="m 370.8021,401.95881 v 77.73098 h -37.27649 l 80.36165,105.60263 78.78516,-105.60263 h -37.55921 v -77.73098 z"
       id="rect854"
       inkscape:connector-curvature="0"
       sodipodi:nodetypes="cccccccc" />
  </g>
</svg>
