<?xml version="1.0" encoding="UTF-8" standalone="no"?>
<svg
   xmlns:dc="http://purl.org/dc/elements/1.1/"
   xmlns:cc="http://creativecommons.org/ns#"
   xmlns:rdf="http://www.w3.org/1999/02/22-rdf-syntax-ns#"
   xmlns:svg="http://www.w3.org/2000/svg"
   xmlns="http://www.w3.org/2000/svg"
   xmlns:sodipodi="http://sodipodi.sourceforge.net/DTD/sodipodi-0.dtd"
   xmlns:inkscape="http://www.inkscape.org/namespaces/inkscape"
   width="100"
   height="97.534302"
   viewBox="0 0 100 97.534302"
   version="1.1"
   id="svg905"
   sodipodi:docname="github.svg"
   inkscape:version="0.92.4 (5da689c313, 2019-01-14)">
  <metadata
     id="metadata911">
    <rdf:RDF>
      <cc:Work
         rdf:about="">
        <dc:format>image/svg+xml</dc:format>
        <dc:type
           rdf:resource="http://purl.org/dc/dcmitype/StillImage" />
        <dc:title></dc:title>
      </cc:Work>
    </rdf:RDF>
  </metadata>
  <defs
     id="defs909" />
  <sodipodi:namedview
     pagecolor="#ffffff"
     bordercolor="#666666"
     borderopacity="1"
     objecttolerance="10"
     gridtolerance="10"
     guidetolerance="10"
     inkscape:pageopacity="0"
     inkscape:pageshadow="2"
     inkscape:window-width="1920"
     inkscape:window-height="1001"
     id="namedview907"
     showgrid="false"
     inkscape:zoom="9.8333333"
     inkscape:cx="12"
     inkscape:cy="48.018402"
     inkscape:window-x="-9"
     inkscape:window-y="-9"
     inkscape:window-maximized="1"
     inkscape:current-layer="svg905" />
  <path
     d="M 50,0 C 22.391667,0 0,22.3875 0,50 0,72.091667 14.325,90.833334 34.195833,97.445834 36.691667,97.908334 37.5,96.358334 37.5,95.041667 v -9.308333 c -13.908333,3.025 -16.804167,-5.9 -16.804167,-5.9 -2.275,-5.779167 -5.554166,-7.316667 -5.554166,-7.316667 -4.5375,-3.104167 0.345833,-3.0375 0.345833,-3.0375 5.020833,0.35 7.6625,5.154167 7.6625,5.154167 4.458333,7.641666 11.695833,5.433333 14.55,4.154166 0.445833,-3.229166 1.741667,-5.4375 3.175,-6.683333 -11.104167,-1.270833 -22.779167,-5.558333 -22.779167,-24.7125 0,-5.4625 1.954167,-9.920833 5.15,-13.420833 -0.516666,-1.2625 -2.229166,-6.35 0.4875,-13.233334 0,0 4.2,-1.341666 13.754167,5.125 C 41.475,24.754167 45.75,24.2 50,24.179167 c 4.25,0.02083 8.529167,0.575 12.525,1.683333 9.545833,-6.466666 13.7375,-5.125 13.7375,-5.125 2.720833,6.8875 1.008333,11.975 0.491667,13.233334 C 79.9625,37.470834 81.9,41.933334 81.9,47.391667 81.9,66.595834 70.204167,70.825 59.070833,72.0625 60.8625,73.6125 62.5,76.654167 62.5,81.320834 v 13.720833 c 0,1.329167 0.8,2.891667 3.3375,2.4 C 85.691667,90.820834 100,72.083334 100,50 100,22.3875 77.6125,0 50,0 Z"
     id="path903"
     inkscape:connector-curvature="0"
     style="stroke-width:4.16666651" />
</svg>
