<?xml version="1.0" encoding="UTF-8" standalone="no"?>
<svg
   xmlns:dc="http://purl.org/dc/elements/1.1/"
   xmlns:cc="http://creativecommons.org/ns#"
   xmlns:rdf="http://www.w3.org/1999/02/22-rdf-syntax-ns#"
   xmlns:svg="http://www.w3.org/2000/svg"
   xmlns="http://www.w3.org/2000/svg"
   xmlns:sodipodi="http://sodipodi.sourceforge.net/DTD/sodipodi-0.dtd"
   xmlns:inkscape="http://www.inkscape.org/namespaces/inkscape"
   viewBox="0 0 357.354 115.84159"
   version="1.1"
   id="svg835"
   sodipodi:docname="linkedin-logo.svg"
   width="357.354"
   height="115.84159"
   style="clip-rule:evenodd;fill-rule:evenodd"
   inkscape:version="0.92.4 (5da689c313, 2019-01-14)">
  <metadata
     id="metadata841">
    <rdf:RDF>
      <cc:Work
         rdf:about="">
        <dc:format>image/svg+xml</dc:format>
        <dc:type
           rdf:resource="http://purl.org/dc/dcmitype/StillImage" />
      </cc:Work>
    </rdf:RDF>
  </metadata>
  <defs
     id="defs839" />
  <sodipodi:namedview
     pagecolor="#ffffff"
     bordercolor="#666666"
     borderopacity="1"
     objecttolerance="10"
     gridtolerance="10"
     guidetolerance="10"
     inkscape:pageopacity="0"
     inkscape:pageshadow="2"
     inkscape:window-width="1920"
     inkscape:window-height="1001"
     id="namedview837"
     showgrid="false"
     inkscape:zoom="2.02"
     inkscape:cx="108.37897"
     inkscape:cy="45.000006"
     inkscape:window-x="-9"
     inkscape:window-y="-9"
     inkscape:window-maximized="1"
     inkscape:current-layer="svg835" />
  <path
     d="m 274.765,115.83959 h 75.175 c 4.092,0 7.412,-3.319 7.412,-7.412 v -75.175 c 0,-4.092 -3.319,-7.412001 -7.412,-7.412001 h -75.175 c -4.092,0 -7.412,3.319001 -7.412,7.412001 v 75.175 c 0,4.092 3.319,7.412 7.412,7.412"
     id="path829"
     inkscape:connector-curvature="0"
     style="fill:none" />
  <path
     d="m 274.765,115.84159 h 75.177 c 4.092,0 7.412,-3.319 7.412,-7.412 v -75.177 c 0,-4.092 -3.319,-7.412001 -7.412,-7.412001 h -75.177 c -4.092,0 -7.412,3.319001 -7.412,7.412001 v 75.177 c 0,4.092 3.319,7.412 7.412,7.412 z m 27,-55.588 h 12.574 v 6.329 c 1.686,-3.38 6.596,-6.991 13.09,-6.991 12.446,0 16.69,5.625 16.69,18.985 v 24.03 h -13.235 v -21.219 c 0,-7.031 -1.374,-10.877 -6.506,-10.877 -6.938,0 -9.376,5.273 -9.376,10.877 v 21.219 h -13.235 v -42.353 z m -21.176,42.353 h 13.235 v -42.353 h -13.235 z m 14.691,-56.912 c 0,4.458 -3.616,8.074 -8.074,8.074 -4.458,0 -8.074,-3.616 -8.074,-8.074 0,-4.46 3.616,-8.074 8.074,-8.074 4.458,0 8.074,3.613 8.074,8.074 z"
     id="path831"
     inkscape:connector-curvature="0"
     style="fill:#0073b0" />
  <path
     d="m 254.118,102.60659 h -11.462 v -4.765 h -0.185 c -1.421,2.2 -6.268,5.426 -12.176,5.426 -14.448,0 -21.176,-9.066 -21.176,-21.838 0,-12.685 7.081,-21.838 19.853,-21.838 6.199,0 9.762,2.316 11.912,5.426 v -25.941 h 13.235 v 63.529 z m -22.635,-32.824 c -6.07,0 -9.659,5 -9.659,11.975 0,6.986 3.589,11.319 9.659,11.319 6.173,0 9.929,-4.333 9.929,-11.319 0,-6.975 -3.838,-11.975 -9.929,-11.975 z m -29.152,25.793 c -3.386,4.301 -10.022,7.692 -19.684,7.692 -13.121,0 -21.507,-8.86 -21.507,-22.5 0,-11.565 8.19,-21.176 22.452,-21.176 12.089,0 20.562,8.492 20.562,22.058 0,2.647 -0.638,5.048 -0.638,5.048 H 173.26 l 0.106,0.614 c 1.009,3.301 4.275,6.692 9.802,6.692 4.9,0 9.246,-2.483 11.078,-4.725 l 8.084,6.297 z m -9.847,-18.784 c -0.49,-4.362 -4.346,-7.936 -9.156,-7.936 -5.884,0 -9.77,3.799 -10.128,7.936 z m -73.366,-37.715 h 13.235 v 38.467 l 14.71,-17.291 h 16.025 l -18.521,20.205 18.823,22.148 h -15.334 l -15.702,-19.564 v 19.564 h -13.235 v -63.529 z m -50.293999,21.177 h 11.462 v 5.935 h 0.185 c 1.784,-3.391 7.245,-6.596 13.765,-6.596 13.576999,0 16.940999,7.692 16.940999,19.302 v 23.712 H 97.942001 v -20.888 c 0,-5 -0.265,-11.488 -7.139,-11.488 -6.964,0 -8.743,5.861 -8.743,11.488 v 20.888 h -13.235 v -42.353 z m -14.559,-20.846 c 4.021,0 7.61,3.592 7.61,7.61 0,4.018 -3.589,7.61 -7.61,7.61 -4.018,0 -7.61,-3.592 -7.61,-7.61 0,-4.018 3.592,-7.61 7.61,-7.61 z m -6.618,63.199 h 13.235 v -42.353 h -13.235 z M 0,39.07659 h 13.235001 v 50.294 h 26.471 v 13.235 H 0 Z"
     id="path833"
     inkscape:connector-curvature="0"
     style="fill:#0073b1" />
</svg>
