<?xml version="1.0" encoding="UTF-8" standalone="no"?>
<!-- Generator: Adobe Illustrator 19.0.0, SVG Export Plug-In . SVG Version: 6.00 Build 0)  -->

<svg
   xmlns:dc="http://purl.org/dc/elements/1.1/"
   xmlns:cc="http://creativecommons.org/ns#"
   xmlns:rdf="http://www.w3.org/1999/02/22-rdf-syntax-ns#"
   xmlns:svg="http://www.w3.org/2000/svg"
   xmlns="http://www.w3.org/2000/svg"
   xmlns:sodipodi="http://sodipodi.sourceforge.net/DTD/sodipodi-0.dtd"
   xmlns:inkscape="http://www.inkscape.org/namespaces/inkscape"
   version="1.1"
   id="Layer_1"
   x="0px"
   y="0px"
   viewBox="0 0 100 100"
   xml:space="preserve"
   sodipodi:docname="linkedin.svg"
   width="100"
   height="100"
   inkscape:version="0.92.4 (5da689c313, 2019-01-14)"><metadata
   id="metadata891"><rdf:RDF><cc:Work
       rdf:about=""><dc:format>image/svg+xml</dc:format><dc:type
         rdf:resource="http://purl.org/dc/dcmitype/StillImage" /></cc:Work></rdf:RDF></metadata><defs
   id="defs889" /><sodipodi:namedview
   pagecolor="#ffffff"
   bordercolor="#666666"
   borderopacity="1"
   objecttolerance="10"
   gridtolerance="10"
   guidetolerance="10"
   inkscape:pageopacity="0"
   inkscape:pageshadow="2"
   inkscape:window-width="1920"
   inkscape:window-height="1001"
   id="namedview887"
   showgrid="false"
   inkscape:zoom="2.1151832"
   inkscape:cx="191"
   inkscape:cy="-95.027227"
   inkscape:window-x="-9"
   inkscape:window-y="-9"
   inkscape:window-maximized="1"
   inkscape:current-layer="Layer_1" />
<path
   style="fill:#0077b7;stroke-width:0.26178011"
   d="M 90.954189,0 H 9.0458116 C 4.05,0 0,4.05 0,9.0458116 V 90.953927 C 0,95.95 4.05,100 9.0458116,100 H 90.953927 C 95.95,100 100,95.95 100,90.953927 V 9.0458116 C 100,4.05 95.95,0 90.954189,0 Z M 30.944241,86.346597 c 0,1.453927 -1.178534,2.632461 -2.632461,2.632461 H 17.106021 c -1.453926,0 -2.632461,-1.178534 -2.632461,-2.632461 V 39.372513 c 0,-1.453926 1.178535,-2.63246 2.632461,-2.63246 H 28.31178 c 1.453927,0 2.632461,1.178534 2.632461,2.63246 z M 22.7089,32.312042 c -5.879318,0 -10.645549,-4.76623 -10.645549,-10.64555 0,-5.87932 4.766231,-10.64555 10.645549,-10.64555 5.87932,0 10.645551,4.76623 10.645551,10.64555 0,5.87932 -4.76597,10.64555 -10.645551,10.64555 z m 66.796336,54.246597 c 0,1.33665 -1.08377,2.420419 -2.420419,2.420419 H 75.06021 c -1.336649,0 -2.420419,-1.083769 -2.420419,-2.420419 V 64.525131 c 0,-3.286911 0.964136,-14.403403 -8.58979,-14.403403 -7.410734,0 -8.913876,7.6089 -9.215708,11.02356 v 25.413351 c 0,1.33665 -1.083507,2.420419 -2.420419,2.420419 H 40.784032 c -1.33665,0 -2.420419,-1.083769 -2.420419,-2.420419 V 39.160471 c 0,-1.336648 1.083769,-2.420418 2.420419,-2.420418 h 11.629842 c 1.33665,0 2.420419,1.08377 2.420419,2.420418 v 4.098168 c 2.747906,-4.123822 6.831676,-7.306807 15.526702,-7.306807 19.25445,0 19.144241,17.988482 19.144241,27.872252 z"
   id="path854"
   inkscape:connector-curvature="0" />
<g
   id="g856"
   transform="translate(0,4.027228)">
</g>
<g
   id="g858"
   transform="translate(0,4.027228)">
</g>
<g
   id="g860"
   transform="translate(0,4.027228)">
</g>
<g
   id="g862"
   transform="translate(0,4.027228)">
</g>
<g
   id="g864"
   transform="translate(0,4.027228)">
</g>
<g
   id="g866"
   transform="translate(0,4.027228)">
</g>
<g
   id="g868"
   transform="translate(0,4.027228)">
</g>
<g
   id="g870"
   transform="translate(0,4.027228)">
</g>
<g
   id="g872"
   transform="translate(0,4.027228)">
</g>
<g
   id="g874"
   transform="translate(0,4.027228)">
</g>
<g
   id="g876"
   transform="translate(0,4.027228)">
</g>
<g
   id="g878"
   transform="translate(0,4.027228)">
</g>
<g
   id="g880"
   transform="translate(0,4.027228)">
</g>
<g
   id="g882"
   transform="translate(0,4.027228)">
</g>
<g
   id="g884"
   transform="translate(0,4.027228)">
</g>
</svg>