<?xml version="1.0" encoding="UTF-8" standalone="no"?>
<!-- Svg Vector Icons : http://www.onlinewebfonts.com/icon -->

<svg
   xmlns:dc="http://purl.org/dc/elements/1.1/"
   xmlns:cc="http://creativecommons.org/ns#"
   xmlns:rdf="http://www.w3.org/1999/02/22-rdf-syntax-ns#"
   xmlns:svg="http://www.w3.org/2000/svg"
   xmlns="http://www.w3.org/2000/svg"
   xmlns:sodipodi="http://sodipodi.sourceforge.net/DTD/sodipodi-0.dtd"
   xmlns:inkscape="http://www.inkscape.org/namespaces/inkscape"
   version="1.1"
   x="0px"
   y="0px"
   viewBox="0 0 617.92993 739.28662"
   enable-background="new 0 0 1000 1000"
   xml:space="preserve"
   id="svg5912"
   sodipodi:docname="touch.svg"
   width="617.92993"
   height="739.28662"
   inkscape:version="0.92.4 (5da689c313, 2019-01-14)"><defs
   id="defs5916" /><sodipodi:namedview
   pagecolor="#ffffff"
   bordercolor="#666666"
   borderopacity="1"
   objecttolerance="10"
   gridtolerance="10"
   guidetolerance="10"
   inkscape:pageopacity="0"
   inkscape:pageshadow="2"
   inkscape:window-width="1920"
   inkscape:window-height="1001"
   id="namedview5914"
   showgrid="false"
   inkscape:zoom="0.6675088"
   inkscape:cx="539.56118"
   inkscape:cy="345.39535"
   inkscape:window-x="-9"
   inkscape:window-y="-9"
   inkscape:window-maximized="1"
   inkscape:current-layer="g5910" />
<metadata
   id="metadata5900"> Svg Vector Icons : http://www.onlinewebfonts.com/icon <rdf:RDF><cc:Work
     rdf:about=""><dc:format>image/svg+xml</dc:format><dc:type
       rdf:resource="http://purl.org/dc/dcmitype/StillImage" /><dc:title></dc:title></cc:Work></rdf:RDF></metadata>
<g
   id="g5910"
   transform="translate(-205.056,-133.87003)"><path
     style="fill:#ffffff;stroke:#000000;stroke-width:1px;stroke-linecap:butt;stroke-linejoin:miter;stroke-opacity:1;fill-opacity:1"
     d="m 223.03329,200.50634 2.99622,-28.46404 35.95458,-25.46783 31.46026,10.48675 110.85996,220.22182 28.46404,-49.43755 43.44512,-2.99622 35.95459,35.95459 23.96972,-40.44891 h 43.44512 l 37.45269,23.96972 32.95836,-35.95458 38.9508,13.48297 82.39592,154.30508 28.46404,83.89403 8.98865,86.89024 -17.97729,73.40727 -43.44512,70.41105 -71.90917,38.9508 -91.38456,28.46405 -79.3997,-5.99244 -61.42241,-28.46404 -188.76156,-200.74642 8.98865,-41.94701 29.96215,-17.97729 h 34.45647 l 101.87132,95.87889 z"
     id="path6482"
     inkscape:connector-curvature="0" /><path
     inkscape:connector-curvature="0"
     id="path5906"
     d="m 224.88766,150.26588 c -12.48946,11.73803 -18.31699,24.60653 -19.33366,42.82293 l -0.498,8.89374 93.42875,202.63017 93.42876,202.63017 -17.35194,-17.26428 c -34.10953,-34.17679 -38.13808,-37.37379 -52.66894,-41.79722 -17.66768,-5.70812 -29.44729,-4.2315 -47.70372,5.5505 -22.96271,12.39586 -34.34007,30.58866 -34.16012,55.44109 -0.0807,9.3391 1.062,14.51072 5.68436,23.97385 5.1813,11.11133 12.91145,19.97487 86.5146,98.07634 45.13979,47.84588 86.63762,90.62634 94.02491,96.48307 30.94251,24.66395 68.40572,39.74421 110.43981,44.23013 76.63403,8.43319 179.15577,-27.75492 228.57518,-80.38113 29.38768,-31.2474 48.11553,-70.40047 55.41439,-115.01516 6.62014,-41.55077 -1.06673,-98.82865 -22.54557,-168.90711 -13.6999,-44.33391 -75.70261,-167.78703 -95.15919,-189.56472 -22.11746,-24.76285 -61.46417,-23.95888 -85.13405,1.87486 -8.29723,8.9446 -9.85608,9.6715 -12.04102,4.98589 -2.59065,-5.55566 -17.96043,-16.77089 -27.47442,-19.94775 -16.13204,-5.58564 -24.96446,-5.05299 -43.42383,2.49551 -14.38225,5.85695 -16.99979,7.50785 -23.64144,15.45976 l -7.37407,8.72377 -8.51822,-7.8561 c -25.83374,-23.66987 -64.76467,-19.25314 -92.90731,10.14481 -2.28729,2.33547 -5.1395,-3.30787 -45.31882,-88.12396 -42.03883,-88.80385 -42.93056,-90.71616 -50.47845,-96.91728 -10.39256,-8.68128 -25.21656,-14.65619 -38.0601,-15.01158 -13.35758,-0.53496 -34.04138,7.21224 -43.71789,16.3697 z m 44.07857,14.31256 c 4.28259,0.12149 10.55202,2.68179 14.83306,5.97069 l 7.46591,5.59939 71.47742,153.28383 71.5535,153.44698 7.62066,3.21013 c 10.58529,4.57512 19.61211,0.36584 22.91146,-10.68379 l 2.43936,-7.9012 -22.5805,-48.42402 c -22.09871,-47.39084 -22.58472,-48.43309 -21.26791,-56.02048 2.93636,-19.54188 32.9724,-30.8005 48.91756,-18.37505 4.02855,3.19699 9.56163,13.71398 30.92921,59.5369 27.6012,59.19096 31.13482,64.94687 40.62545,65.37618 8.21655,0.39449 15.29042,-4.38263 18.15447,-12.27222 l 2.68448,-7.37554 -18.94175,-40.62072 c -16.3511,-35.06505 -18.91855,-41.4701 -18.56624,-47.97881 0.22384,-11.30366 6.36787,-19.87314 18.00487,-25.29956 12.49798,-5.8279 22.07059,-4.79686 31.18994,2.99961 6.20342,5.13988 8.97364,10.18149 30.18063,55.66002 15.13818,32.46394 24.57579,50.88097 26.92286,52.74357 1.93398,1.4263 6.61805,2.40877 10.56361,2.25709 6.00204,-0.26102 7.74215,-1.07245 11.8092,-5.50671 2.48015,-2.84469 4.79803,-6.4633 5.10177,-8.08346 0.22345,-1.79237 -6.42595,-18.77318 -14.6491,-37.75652 -16.45306,-37.55527 -16.66337,-39.35501 -9.4359,-52.86528 3.70352,-7.01216 16.25276,-14.55213 24.31609,-14.93579 11.57514,-0.54271 17.35387,4.58557 30.63139,26.71787 20.56076,34.58058 51.43034,93.51636 60.73908,116.64973 31.60984,78.67206 45.14376,151.18641 37.18614,200.7535 -6.90322,42.74202 -29.85717,82.81754 -63.61779,111.02855 -13.49944,11.37043 -17.86133,13.82369 -46.14719,27.01361 -34.0228,15.86509 -54.25132,22.34075 -84.54101,27.16359 -59.71416,9.25325 -118.16452,-5.97095 -155.86785,-40.59041 -14.04445,-12.89248 -165.31909,-174.60197 -167.18284,-178.59879 -2.82416,-6.50602 -1.83224,-20.70562 2.12801,-27.61682 3.23918,-5.73639 6.04053,-7.89228 16.454,-12.74816 20.48256,-9.55118 20.48256,-9.55118 81.79196,51.67474 29.95266,29.78178 53.50634,51.75642 56.89989,53.14207 7.80192,3.12561 17.60944,-1.65735 21.61671,-10.28968 L 454.2306,668.42923 345.01705,431.94846 C 236.12892,196.16556 235.72321,195.2955 237.10133,188.73876 c 2.79336,-13.98037 17.31607,-24.97836 31.8649,-24.16032 z"
     style="stroke-width:0.1;fill:#a5d5d8;fill-opacity:1;stroke:#00b100;stroke-opacity:1" /></g>
</svg>