<?xml version="1.0" encoding="UTF-8" standalone="no"?>
<!-- Created with Inkscape (http://www.inkscape.org/) -->

<svg
   xmlns:dc="http://purl.org/dc/elements/1.1/"
   xmlns:cc="http://creativecommons.org/ns#"
   xmlns:rdf="http://www.w3.org/1999/02/22-rdf-syntax-ns#"
   xmlns:svg="http://www.w3.org/2000/svg"
   xmlns="http://www.w3.org/2000/svg"
   xmlns:sodipodi="http://sodipodi.sourceforge.net/DTD/sodipodi-0.dtd"
   xmlns:inkscape="http://www.inkscape.org/namespaces/inkscape"
   width="66.633926mm"
   height="45.467262mm"
   viewBox="0 0 66.633926 45.467262"
   version="1.1"
   id="svg8"
   sodipodi:docname="wip.svg"
   inkscape:version="0.92.4 (5da689c313, 2019-01-14)">
  <defs
     id="defs2" />
  <sodipodi:namedview
     id="base"
     pagecolor="#ffffff"
     bordercolor="#666666"
     borderopacity="1.0"
     inkscape:pageopacity="0.0"
     inkscape:pageshadow="2"
     inkscape:zoom="0.7"
     inkscape:cx="-87.408506"
     inkscape:cy="-79.763886"
     inkscape:document-units="mm"
     inkscape:current-layer="layer1"
     showgrid="false"
     inkscape:window-width="1920"
     inkscape:window-height="1001"
     inkscape:window-x="-9"
     inkscape:window-y="-9"
     inkscape:window-maximized="1" />
  <metadata
     id="metadata5">
    <rdf:RDF>
      <cc:Work
         rdf:about="">
        <dc:format>image/svg+xml</dc:format>
        <dc:type
           rdf:resource="http://purl.org/dc/dcmitype/StillImage" />
      </cc:Work>
    </rdf:RDF>
  </metadata>
  <g
     inkscape:label="Layer 1"
     inkscape:groupmode="layer"
     id="layer1"
     transform="translate(-19.939882,-25.369047)">
    <rect
       style="opacity:1;fill:none;fill-opacity:0.78431373;stroke:#87d7d7;stroke-width:2;stroke-linecap:square;stroke-linejoin:round;stroke-miterlimit:4;stroke-dasharray:6.00000017, 6.00000016999999986;stroke-dashoffset:0;stroke-opacity:1;paint-order:normal"
       id="rect827"
       width="64.633926"
       height="43.467262"
       x="20.939882"
       y="26.369047" />
    <g
       aria-label="WORK IN PROGRESS"
       transform="matrix(0.26458333,0,0,0.26458333,-17.261537,-101.6651)"
       style="font-style:normal;font-weight:normal;font-size:40px;line-height:1.25;font-family:sans-serif;letter-spacing:0px;word-spacing:0px;fill:#87d5d8;fill-opacity:1;stroke:none;paint-order:normal"
       id="flowRoot815">
      <path
         d="m 176.44,563.47932 -5.64267,-52.68533 h 10.304 l 2.944,33.24266 2.944,-33.24266 h 9.81334 l 2.82133,33.24266 2.82133,-33.24266 H 212.872 l -5.76533,52.68533 H 194.472 l -2.63733,-25.392 -2.51467,25.392 z"
         style="font-style:normal;font-variant:normal;font-weight:normal;font-stretch:normal;font-size:61.33333588px;font-family:Anton;-inkscape-font-specification:Anton;fill:#87d7d7;fill-opacity:1;paint-order:normal"
         id="path829"
         inkscape:connector-curvature="0" />
      <path
         d="m 228.62796,563.96999 q -6.37867,0 -9.69067,-3.864 -3.312,-3.92534 -3.312,-10.97867 v -25.08533 q 0,-6.808 3.312,-10.24267 3.312,-3.496 9.69067,-3.496 6.37867,0 9.69067,3.496 3.312,3.43467 3.312,10.24267 v 25.08533 q 0,7.11467 -3.312,10.97867 -3.312,3.864 -9.69067,3.864 z m 0,-9.69067 q 1.41067,0 1.90133,-1.22667 0.49067,-1.22666 0.49067,-3.43466 v -25.76 q 0,-1.71734 -0.49067,-2.76 -0.42933,-1.104 -1.84,-1.104 -2.63733,0 -2.63733,3.98666 v 25.69867 q 0,2.26933 0.552,3.43467 0.552,1.16533 2.024,1.16533 z"
         style="font-style:normal;font-variant:normal;font-weight:normal;font-stretch:normal;font-size:61.33333588px;font-family:Anton;-inkscape-font-specification:Anton;fill:#87d7d7;fill-opacity:1;paint-order:normal"
         id="path831"
         inkscape:connector-curvature="0" />
      <path
         d="m 245.88275,510.79399 h 16.192 q 3.864,0 5.94934,1.77866 2.14666,1.71734 2.88266,4.90667 0.736,3.128 0.736,8.03467 0,4.47733 -1.16533,6.992 -1.16533,2.51466 -4.048,3.496 2.392,0.49066 3.43467,2.392 1.104,1.90133 1.104,5.152 l -0.12267,19.93333 h -10.304 v -20.608 q 0,-2.208 -0.85867,-2.82133 -0.85866,-0.61334 -3.128,-0.61334 v 24.04267 h -10.672 z m 13.248,19.504 q 2.208,0 2.208,-4.784 0,-2.08534 -0.184,-3.128 -0.184,-1.04267 -0.67466,-1.41067 -0.49067,-0.42933 -1.41067,-0.42933 h -2.45333 v 9.752 z"
         style="font-style:normal;font-variant:normal;font-weight:normal;font-stretch:normal;font-size:61.33333588px;font-family:Anton;-inkscape-font-specification:Anton;fill:#87d7d7;fill-opacity:1;paint-order:normal"
         id="path833"
         inkscape:connector-curvature="0" />
      <path
         d="m 275.11192,563.47932 v -52.68533 h 10.42667 v 21.09866 l 4.90667,-21.09866 h 10.61067 l -5.888,24.104 7.11466,28.58133 h -10.91733 l -5.76534,-25.51467 v 25.51467 z"
         style="font-style:normal;font-variant:normal;font-weight:normal;font-stretch:normal;font-size:61.33333588px;font-family:Anton;-inkscape-font-specification:Anton;fill:#87d7d7;fill-opacity:1;paint-order:normal"
         id="path835"
         inkscape:connector-curvature="0" />
      <path
         d="m 317.98584,563.47932 v -52.68533 h 10.18134 v 52.68533 z"
         style="font-style:normal;font-variant:normal;font-weight:normal;font-stretch:normal;font-size:61.33333588px;font-family:Anton;-inkscape-font-specification:Anton;fill:#87d7d7;fill-opacity:1;paint-order:normal"
         id="path837"
         inkscape:connector-curvature="0" />
      <path
         d="m 332.37234,563.47932 v -52.68533 h 10.856 l 4.84533,25.208 v -25.208 h 10.18134 v 52.68533 h -10.304 l -5.27467,-26.37333 v 26.37333 z"
         style="font-style:normal;font-variant:normal;font-weight:normal;font-stretch:normal;font-size:61.33333588px;font-family:Anton;-inkscape-font-specification:Anton;fill:#87d7d7;fill-opacity:1;paint-order:normal"
         id="path839"
         inkscape:connector-curvature="0" />
      <path
         d="m 171.92533,577.87161 h 11.50134 q 5.21866,0 7.448,3.39466 2.22933,3.344 2.22933,9.82934 0,6.48533 -1.976,9.77866 -1.976,3.29334 -7.09333,3.29334 H 180.488 v 17.22666 h -8.56267 z m 9.06934,18.44266 q 1.57066,0 2.28,-0.55733 0.76,-0.608 0.96266,-1.672 0.25334,-1.11467 0.25334,-3.14133 0,-2.736 -0.608,-3.952 -0.608,-1.216 -2.432,-1.216 H 180.488 v 10.53866 z"
         style="font-style:normal;font-variant:normal;font-weight:normal;font-stretch:normal;font-size:50.66666794px;line-height:0;font-family:Anton;-inkscape-font-specification:Anton;fill:#87d7d7;fill-opacity:1;paint-order:normal"
         id="path841"
         inkscape:connector-curvature="0" />
      <path
         d="m 195.87325,577.87161 h 13.376 q 3.192,0 4.91467,1.46933 1.77333,1.41867 2.38133,4.05333 0.608,2.584 0.608,6.63734 0,3.69866 -0.96266,5.776 -0.96267,2.07733 -3.344,2.888 1.976,0.40533 2.83733,1.976 0.912,1.57066 0.912,4.256 l -0.10133,16.46666 h -8.51201 v -17.024 q 0,-1.824 -0.70933,-2.33066 -0.70933,-0.50667 -2.584,-0.50667 v 19.86133 h -8.816 z m 10.944,16.112 q 1.824,0 1.824,-3.952 0,-1.72267 -0.152,-2.584 -0.152,-0.86134 -0.55733,-1.16534 -0.40534,-0.35466 -1.16534,-0.35466 h -2.02666 v 8.056 z"
         style="font-style:normal;font-variant:normal;font-weight:normal;font-stretch:normal;font-size:50.66666794px;line-height:0;font-family:Anton;-inkscape-font-specification:Anton;fill:#87d7d7;fill-opacity:1;paint-order:normal"
         id="path843"
         inkscape:connector-curvature="0" />
      <path
         d="m 230.40575,621.79961 q -5.26933,0 -8.00533,-3.192 -2.736,-3.24267 -2.736,-9.06934 v -20.72266 q 0,-5.624 2.736,-8.46134 2.736,-2.888 8.00533,-2.888 5.26933,0 8.00533,2.888 2.736,2.83734 2.736,8.46134 v 20.72266 q 0,5.87734 -2.736,9.06934 -2.736,3.192 -8.00533,3.192 z m 0,-8.00534 q 1.16533,0 1.57067,-1.01333 0.40533,-1.01333 0.40533,-2.83733 v -21.28 q 0,-1.41867 -0.40533,-2.28 -0.35467,-0.912 -1.52,-0.912 -2.17867,0 -2.17867,3.29333 v 21.22933 q 0,1.87467 0.456,2.83734 0.456,0.96266 1.672,0.96266 z"
         style="font-style:normal;font-variant:normal;font-weight:normal;font-stretch:normal;font-size:50.66666794px;line-height:0;font-family:Anton;-inkscape-font-specification:Anton;fill:#87d7d7;fill-opacity:1;paint-order:normal"
         id="path845"
         inkscape:connector-curvature="0" />
      <path
         d="m 253.62771,621.79961 q -4.712,0 -7.04267,-3.29334 -2.28,-3.344 -2.28,-10.08266 v -18.74667 q 0,-6.02933 2.68534,-9.12 2.68533,-3.09067 8.00533,-3.09067 4.30667,0 6.688,1.72267 2.38133,1.72267 3.29333,5.016 0.912,3.29333 0.912,8.46133 h -8.512 v -3.90133 q 0,-1.57067 -0.456,-2.432 -0.40533,-0.86133 -1.52,-0.86133 -2.48266,0 -2.48266,3.24266 v 21.07734 q 0,1.976 0.50666,2.98933 0.50667,1.01333 1.77334,1.01333 1.26666,0 1.77333,-1.01333 0.50667,-1.01333 0.50667,-2.98933 v -6.232 h -2.33067 v -7.49867 h 10.64 v 25.33333 h -3.496 l -1.46933,-3.648 q -2.33067,4.05334 -7.19467,4.05334 z"
         style="font-style:normal;font-variant:normal;font-weight:normal;font-stretch:normal;font-size:50.66666794px;line-height:0;font-family:Anton;-inkscape-font-specification:Anton;fill:#87d7d7;fill-opacity:1;paint-order:normal"
         id="path847"
         inkscape:connector-curvature="0" />
      <path
         d="m 269.20138,577.87161 h 13.376 q 3.192,0 4.91467,1.46933 1.77333,1.41867 2.38133,4.05333 0.608,2.584 0.608,6.63734 0,3.69866 -0.96267,5.776 -0.96266,2.07733 -3.344,2.888 1.976,0.40533 2.83734,1.976 0.912,1.57066 0.912,4.256 l -0.10134,16.46666 h -8.512 v -17.024 q 0,-1.824 -0.70933,-2.33066 -0.70933,-0.50667 -2.584,-0.50667 v 19.86133 h -8.816 z m 10.944,16.112 q 1.824,0 1.824,-3.952 0,-1.72267 -0.152,-2.584 -0.152,-0.86134 -0.55733,-1.16534 -0.40534,-0.35466 -1.16534,-0.35466 h -2.02666 v 8.056 z"
         style="font-style:normal;font-variant:normal;font-weight:normal;font-stretch:normal;font-size:50.66666794px;line-height:0;font-family:Anton;-inkscape-font-specification:Anton;fill:#87d7d7;fill-opacity:1;paint-order:normal"
         id="path849"
         inkscape:connector-curvature="0" />
      <path
         d="m 293.34721,621.39427 v -43.52266 h 17.42933 v 8.41066 h -8.56266 v 8.46134 h 8.208 v 8.208 h -8.208 v 9.98133 h 9.12 v 8.46133 z"
         style="font-style:normal;font-variant:normal;font-weight:normal;font-stretch:normal;font-size:50.66666794px;line-height:0;font-family:Anton;-inkscape-font-specification:Anton;fill:#87d7d7;fill-opacity:1;paint-order:normal"
         id="path851"
         inkscape:connector-curvature="0" />
      <path
         d="m 324.56343,621.79961 q -5.928,0 -8.56267,-2.93867 -2.63467,-2.93867 -2.63467,-9.47467 v -4.256 h 8.56267 v 5.42134 q 0,3.24266 2.07733,3.24266 1.16534,0 1.62134,-0.65866 0.456,-0.70934 0.456,-2.33067 0,-2.128 -0.50667,-3.496 -0.50667,-1.41867 -1.31733,-2.33067 -0.76,-0.96266 -2.78667,-2.93866 l -3.74933,-3.74934 q -4.35734,-4.256 -4.35734,-9.424 0,-5.57333 2.53334,-8.46133 2.584,-2.93867 7.49866,-2.93867 5.87734,0 8.46134,3.14134 2.584,3.09066 2.584,9.728 h -8.86667 l -0.0507,-2.98934 q 0,-0.86133 -0.50666,-1.368 -0.456,-0.50666 -1.31734,-0.50666 -1.01333,0 -1.52,0.55733 -0.50666,0.55733 -0.50666,1.52 0,2.128 2.432,4.408 l 5.06666,4.864 q 1.77334,1.72267 2.93867,3.29333 1.16533,1.52 1.87467,3.648 0.70933,2.07734 0.70933,4.96534 0,6.43466 -2.38133,9.77866 -2.33067,3.29334 -7.752,3.29334 z"
         style="font-style:normal;font-variant:normal;font-weight:normal;font-stretch:normal;font-size:50.66666794px;line-height:0;font-family:Anton;-inkscape-font-specification:Anton;fill:#87d7d7;fill-opacity:1;paint-order:normal"
         id="path853"
         inkscape:connector-curvature="0" />
      <path
         d="m 347.91758,621.79961 q -5.928,0 -8.56266,-2.93867 -2.63467,-2.93867 -2.63467,-9.47467 v -4.256 h 8.56267 v 5.42134 q 0,3.24266 2.07733,3.24266 1.16533,0 1.62133,-0.65866 0.456,-0.70934 0.456,-2.33067 0,-2.128 -0.50666,-3.496 -0.50667,-1.41867 -1.31734,-2.33067 -0.76,-0.96266 -2.78666,-2.93866 l -3.74934,-3.74934 q -4.35733,-4.256 -4.35733,-9.424 0,-5.57333 2.53333,-8.46133 2.584,-2.93867 7.49867,-2.93867 5.87733,0 8.46133,3.14134 2.584,3.09066 2.584,9.728 h -8.86666 l -0.0507,-2.98934 q 0,-0.86133 -0.50667,-1.368 -0.456,-0.50666 -1.31733,-0.50666 -1.01333,0 -1.52,0.55733 -0.50667,0.55733 -0.50667,1.52 0,2.128 2.432,4.408 l 5.06667,4.864 q 1.77333,1.72267 2.93867,3.29333 1.16533,1.52 1.87466,3.648 0.70934,2.07734 0.70934,4.96534 0,6.43466 -2.38134,9.77866 -2.33066,3.29334 -7.752,3.29334 z"
         style="font-style:normal;font-variant:normal;font-weight:normal;font-stretch:normal;font-size:50.66666794px;line-height:0;font-family:Anton;-inkscape-font-specification:Anton;fill:#87d7d7;fill-opacity:1;paint-order:normal"
         id="path855"
         inkscape:connector-curvature="0" />
    </g>
  </g>
</svg>
