<?xml version="1.0" encoding="UTF-8" standalone="no"?>
<!-- Generator: Adobe Illustrator 16.0.0, SVG Export Plug-In . SVG Version: 6.00 Build 0)  -->

<svg
   xmlns:dc="http://purl.org/dc/elements/1.1/"
   xmlns:cc="http://creativecommons.org/ns#"
   xmlns:rdf="http://www.w3.org/1999/02/22-rdf-syntax-ns#"
   xmlns:svg="http://www.w3.org/2000/svg"
   xmlns="http://www.w3.org/2000/svg"
   xmlns:sodipodi="http://sodipodi.sourceforge.net/DTD/sodipodi-0.dtd"
   xmlns:inkscape="http://www.inkscape.org/namespaces/inkscape"
   version="1.1"
   id="Capa_1"
   x="0px"
   y="0px"
   width="549.07269"
   height="473.97867"
   viewBox="0 0 549.07269 473.97866"
   xml:space="preserve"
   sodipodi:docname="external-link-symbol.svg"
   inkscape:version="0.92.4 (5da689c313, 2019-01-14)"><metadata
   id="metadata903"><rdf:RDF><cc:Work
       rdf:about=""><dc:format>image/svg+xml</dc:format><dc:type
         rdf:resource="http://purl.org/dc/dcmitype/StillImage" /></cc:Work></rdf:RDF></metadata><defs
   id="defs901" /><sodipodi:namedview
   pagecolor="#ffffff"
   bordercolor="#666666"
   borderopacity="1"
   objecttolerance="10"
   gridtolerance="10"
   guidetolerance="10"
   inkscape:pageopacity="0"
   inkscape:pageshadow="2"
   inkscape:window-width="1920"
   inkscape:window-height="1001"
   id="namedview899"
   showgrid="false"
   inkscape:zoom="1.5792755"
   inkscape:cx="82.980463"
   inkscape:cy="658.22779"
   inkscape:window-x="-9"
   inkscape:window-y="-9"
   inkscape:window-maximized="1"
   inkscape:current-layer="g864" />
<g
   id="g866"
   style="fill:#000000;fill-opacity:1"
   transform="translate(18.897638,-19.998969)">
	<g
   id="g864"
   style="fill:#000000;fill-opacity:1">
		<path
   d="m 392.857,292.354 h -18.274 c -2.669,0 -4.859,0.855 -6.563,2.573 -1.718,1.708 -2.573,3.897 -2.573,6.563 v 91.361 c 0,12.563 -4.47,23.315 -13.415,32.262 -8.945,8.945 -19.701,13.414 -32.264,13.414 H 82.224 c -12.562,0 -23.317,-4.469 -32.264,-13.414 -8.945,-8.946 -13.417,-19.698 -13.417,-32.262 V 155.31 c 0,-12.562 4.471,-23.313 13.417,-32.259 8.947,-8.947 19.702,-13.418 32.264,-13.418 h 200.994 c 2.669,0 4.859,-0.859 6.57,-2.57 1.711,-1.713 2.566,-3.9 2.566,-6.567 V 82.221 c 0,-2.662 -0.855,-4.853 -2.566,-6.563 -1.711,-1.713 -3.901,-2.568 -6.57,-2.568 H 82.224 C 59.576,73.09 40.208,81.132 24.122,97.215 8.042,113.297 0,132.665 0,155.313 v 237.542 c 0,22.647 8.042,42.018 24.123,58.095 16.086,16.084 35.454,24.13 58.102,24.13 h 237.543 c 22.647,0 42.017,-8.046 58.101,-24.13 16.085,-16.077 24.127,-35.447 24.127,-58.095 v -91.358 c 0,-2.669 -0.856,-4.859 -2.574,-6.57 -1.713,-1.718 -3.903,-2.573 -6.565,-2.573 z"
   id="path860"
   style="fill:#a5d5d8;fill-opacity:1;stroke:#a5d5d8;stroke-width:37.79527664;stroke-miterlimit:4;stroke-dasharray:none;stroke-opacity:1"
   inkscape:connector-curvature="0" />
		<path
   d="m 518.199,31.971 c -3.617,-3.617 -7.905,-5.424 -12.85,-5.424 H 359.171 c -4.948,0 -9.233,1.807 -12.847,5.424 -3.617,3.615 -5.428,7.898 -5.428,12.847 0,4.949 1.811,9.233 5.428,12.85 l 50.247,50.248 -186.147,186.151 c -1.906,1.903 -2.856,4.093 -2.856,6.563 0,2.479 0.953,4.668 2.856,6.571 l 32.548,32.544 c 1.903,1.903 4.093,2.852 6.567,2.852 2.474,0 4.665,-0.948 6.567,-2.852 l 186.148,-186.148 50.251,50.248 c 3.614,3.617 7.898,5.426 12.847,5.426 4.949,0 9.233,-1.809 12.851,-5.426 3.617,-3.616 5.424,-7.898 5.424,-12.847 V 44.818 c -10e-4,-4.952 -1.814,-9.232 -5.428,-12.847 z"
   id="path862"
   style="fill:#a5d5d8;fill-opacity:1;stroke:#a5d5d8;stroke-width:13.09606266;stroke-miterlimit:4;stroke-dasharray:none;stroke-opacity:1"
   inkscape:connector-curvature="0" />
	</g>
</g>
<g
   id="g868"
   transform="translate(18.897638,-19.998969)">
</g>
<g
   id="g870"
   transform="translate(18.897638,-19.998969)">
</g>
<g
   id="g872"
   transform="translate(18.897638,-19.998969)">
</g>
<g
   id="g874"
   transform="translate(18.897638,-19.998969)">
</g>
<g
   id="g876"
   transform="translate(18.897638,-19.998969)">
</g>
<g
   id="g878"
   transform="translate(18.897638,-19.998969)">
</g>
<g
   id="g880"
   transform="translate(18.897638,-19.998969)">
</g>
<g
   id="g882"
   transform="translate(18.897638,-19.998969)">
</g>
<g
   id="g884"
   transform="translate(18.897638,-19.998969)">
</g>
<g
   id="g886"
   transform="translate(18.897638,-19.998969)">
</g>
<g
   id="g888"
   transform="translate(18.897638,-19.998969)">
</g>
<g
   id="g890"
   transform="translate(18.897638,-19.998969)">
</g>
<g
   id="g892"
   transform="translate(18.897638,-19.998969)">
</g>
<g
   id="g894"
   transform="translate(18.897638,-19.998969)">
</g>
<g
   id="g896"
   transform="translate(18.897638,-19.998969)">
</g>
</svg>