<?xml version="1.0" encoding="UTF-8" standalone="no"?>
<!-- Created with Inkscape (http://www.inkscape.org/) -->

<svg
   xmlns:dc="http://purl.org/dc/elements/1.1/"
   xmlns:cc="http://creativecommons.org/ns#"
   xmlns:rdf="http://www.w3.org/1999/02/22-rdf-syntax-ns#"
   xmlns:svg="http://www.w3.org/2000/svg"
   xmlns="http://www.w3.org/2000/svg"
   xmlns:sodipodi="http://sodipodi.sourceforge.net/DTD/sodipodi-0.dtd"
   xmlns:inkscape="http://www.inkscape.org/namespaces/inkscape"
   width="84.244484mm"
   height="10.68916mm"
   viewBox="0 0 84.244484 10.68916"
   version="1.1"
   id="svg4649"
   inkscape:version="0.92.4 (5da689c313, 2019-01-14)"
   sodipodi:docname="frontend.svg">
  <defs
     id="defs4643" />
  <sodipodi:namedview
     id="base"
     pagecolor="#ffffff"
     bordercolor="#666666"
     borderopacity="1.0"
     inkscape:pageopacity="0.0"
     inkscape:pageshadow="2"
     inkscape:zoom="0.35"
     inkscape:cx="159.20217"
     inkscape:cy="20.199975"
     inkscape:document-units="mm"
     inkscape:current-layer="layer1"
     showgrid="false"
     inkscape:window-width="1920"
     inkscape:window-height="1001"
     inkscape:window-x="-9"
     inkscape:window-y="-9"
     inkscape:window-maximized="1" />
  <metadata
     id="metadata4646">
    <rdf:RDF>
      <cc:Work
         rdf:about="">
        <dc:format>image/svg+xml</dc:format>
        <dc:type
           rdf:resource="http://purl.org/dc/dcmitype/StillImage" />
        <dc:title></dc:title>
      </cc:Work>
    </rdf:RDF>
  </metadata>
  <g
     inkscape:label="Layer 1"
     inkscape:groupmode="layer"
     id="layer1"
     transform="translate(63.666884,-143.48875)">
    <path
       d="m -63.666884,152.63276 v -9.09109 h 3.640666 v 1.76741 h -1.80975 v 1.44992 h 1.7145 v 1.74625 h -1.7145 v 4.12751 z"
       style="font-style:normal;font-variant:normal;font-weight:normal;font-stretch:normal;font-size:10.58333302px;line-height:1.25;font-family:Anton;-inkscape-font-specification:Anton;letter-spacing:0px;word-spacing:0px;fill:#000000;fill-opacity:1;stroke:none;stroke-width:0.07000434"
       id="path4583"
       inkscape:connector-curvature="0" />
    <path
       d="m -59.481837,144.88575 h 1.852083 v 0.85725 q 0.137583,-0.45508 0.47625,-0.6985 0.34925,-0.254 0.85725,-0.254 v 1.54517 q -0.391583,0 -0.867833,0.11641 -0.465667,0.10584 -0.465667,0.254 v 5.92668 h -1.852083 z"
       style="font-style:normal;font-variant:normal;font-weight:normal;font-stretch:normal;font-size:10.58333302px;line-height:1.25;font-family:Anton;-inkscape-font-specification:Anton;letter-spacing:0px;word-spacing:0px;fill:#000000;fill-opacity:1;stroke:none;stroke-width:0.07000434"
       id="path4585"
       inkscape:connector-curvature="0" />
    <path
       d="m -53.589567,152.71742 q -2.31775,0 -2.31775,-2.40242 v -3.1115 q 0,-1.10067 0.613834,-1.74625 0.624416,-0.65617 1.703916,-0.65617 1.0795,0 1.693333,0.65617 0.624417,0.64558 0.624417,1.74625 v 3.1115 q 0,2.40242 -2.31775,2.40242 z m 0,-1.42876 q 0.22225,0 0.328083,-0.15875 0.105834,-0.15875 0.105834,-0.4339 v -3.78884 q 0,-0.67734 -0.433917,-0.67734 -0.433916,0 -0.433916,0.67734 v 3.78884 q 0,0.27515 0.105833,0.4339 0.105833,0.15875 0.328083,0.15875 z"
       style="font-style:normal;font-variant:normal;font-weight:normal;font-stretch:normal;font-size:10.58333302px;line-height:1.25;font-family:Anton;-inkscape-font-specification:Anton;letter-spacing:0px;word-spacing:0px;fill:#000000;fill-opacity:1;stroke:none;stroke-width:0.07000434"
       id="path4587"
       inkscape:connector-curvature="0" />
    <path
       d="m -50.593492,144.88575 h 1.852084 V 145.87 q 0.116416,-0.47625 0.402166,-0.77258 0.28575,-0.29634 0.762,-0.29634 0.783167,0 1.153584,0.48684 0.381,0.47625 0.381,1.36525 v 5.97959 h -1.820334 v -5.78909 q 0,-0.254 -0.105833,-0.43392 -0.09525,-0.17992 -0.306917,-0.17992 -0.28575,0 -0.381,0.26459 -0.08467,0.254 -0.08467,0.68791 v 5.45043 h -1.85208 z"
       style="font-style:normal;font-variant:normal;font-weight:normal;font-stretch:normal;font-size:10.58333302px;line-height:1.25;font-family:Anton;-inkscape-font-specification:Anton;letter-spacing:0px;word-spacing:0px;fill:#000000;fill-opacity:1;stroke:none;stroke-width:0.07000434"
       id="path4589"
       inkscape:connector-curvature="0" />
    <path
       d="m -43.724412,152.71742 q -0.73025,0 -1.005417,-0.30691 -0.275166,-0.30693 -0.275166,-0.98425 v -4.83659 h -0.518584 v -1.40759 h 0.518584 v -1.64041 h 1.799166 v 1.64041 h 0.529167 v 1.40759 h -0.529167 v 4.34974 q 0,0.2011 0.03175,0.29635 0.03175,0.0952 0.169333,0.0952 0.105834,0 0.201084,-0.0106 0.09525,-0.0106 0.127,-0.0106 v 1.27 q -0.15875,0.0423 -0.465667,0.0847 -0.296333,0.0529 -0.582083,0.0529 z"
       style="font-style:normal;font-variant:normal;font-weight:normal;font-stretch:normal;font-size:10.58333302px;line-height:1.25;font-family:Anton;-inkscape-font-specification:Anton;letter-spacing:0px;word-spacing:0px;fill:#000000;fill-opacity:1;stroke:none;stroke-width:0.07000434"
       id="path4591"
       inkscape:connector-curvature="0" />
    <path
       d="m -37.447834,152.71742 q -1.195917,0 -1.7145,-0.65616 -0.518583,-0.65618 -0.518583,-1.95793 v -3.1115 q 0,-1.06891 0.613833,-1.62983 0.613833,-0.56092 1.7145,-0.56092 2.233083,0 2.233083,2.19075 v 0.56092 q 0,0.84667 -0.02117,1.37583 h -2.68817 v 1.50284 q 0,0.40216 0.08467,0.63499 0.08467,0.22225 0.359833,0.22225 0.211667,0 0.296334,-0.127 0.09525,-0.127 0.105833,-0.28575 0.02117,-0.16933 0.02117,-0.48683 v -0.75141 h 1.8415 v 0.4445 q 0,1.35466 -0.529164,2.00024 -0.518586,0.63501 -1.799169,0.63501 z m 0.486833,-4.70959 V 147.013 q 0,-0.83608 -0.41275,-0.83608 -0.465666,0 -0.465666,0.83608 v 0.99483 z"
       style="font-style:normal;font-variant:normal;font-weight:normal;font-stretch:normal;font-size:10.58333302px;line-height:1.25;font-family:Anton;-inkscape-font-specification:Anton;letter-spacing:0px;word-spacing:0px;fill:#000000;fill-opacity:1;stroke:none;stroke-width:0.07000434"
       id="path4593"
       inkscape:connector-curvature="0" />
    <path
       d="m -34.449775,144.88575 h 1.852084 V 145.87 q 0.116416,-0.47625 0.402166,-0.77258 0.28575,-0.29634 0.762,-0.29634 0.783167,0 1.153584,0.48684 0.381,0.47625 0.381,1.36525 v 5.97959 h -1.820334 v -5.78909 q 0,-0.254 -0.105833,-0.43392 -0.09525,-0.17992 -0.306917,-0.17992 -0.28575,0 -0.381,0.26459 -0.08467,0.254 -0.08467,0.68791 v 5.45043 h -1.852086 z"
       style="font-style:normal;font-variant:normal;font-weight:normal;font-stretch:normal;font-size:10.58333302px;line-height:1.25;font-family:Anton;-inkscape-font-specification:Anton;letter-spacing:0px;word-spacing:0px;fill:#000000;fill-opacity:1;stroke:none;stroke-width:0.07000434"
       id="path4595"
       inkscape:connector-curvature="0" />
    <path
       d="m -27.65478,152.71742 q -0.677331,0 -1.026581,-0.3175 -0.338669,-0.32809 -0.455083,-0.85726 -0.105836,-0.53975 -0.105836,-1.37583 l 0.02117,-3.4925 q 0,-0.8255 0.41275,-1.34408 0.423333,-0.52917 1.185333,-0.52917 0.751417,0 1.121833,0.49742 v -1.80975 h 1.852084 v 9.14401 h -1.852084 v -0.8255 q -0.15875,0.45507 -0.433916,0.68791 -0.264584,0.22225 -0.719667,0.22225 z m 0.709086,-1.44991 q 0.275164,0 0.359833,-0.2646 0.08467,-0.27515 0.08467,-0.73024 v -0.32809 -2.91041 q 0,-0.33867 -0.09525,-0.5715 -0.09525,-0.23284 -0.338667,-0.23284 -0.275167,0 -0.370417,0.22225 -0.08467,0.21167 -0.08467,0.58209 v 3.25966 q 0,0.97368 0.444503,0.97368 z"
       style="font-style:normal;font-variant:normal;font-weight:normal;font-stretch:normal;font-size:10.58333302px;line-height:1.25;font-family:Anton;-inkscape-font-specification:Anton;letter-spacing:0px;word-spacing:0px;fill:#000000;fill-opacity:1;stroke:none;stroke-width:0.07000434"
       id="path4597"
       inkscape:connector-curvature="0" />
    <path
       d="m -19.903314,152.71742 q -0.677333,0 -1.026583,-0.3175 -0.338667,-0.32809 -0.455083,-0.85726 -0.105834,-0.53975 -0.105834,-1.37583 l 0.02117,-3.4925 q 0,-0.8255 0.41275,-1.34408 0.423333,-0.52917 1.185333,-0.52917 0.751417,0 1.121834,0.49742 v -1.80975 h 1.852083 v 9.14401 h -1.852083 v -0.8255 q -0.15875,0.45507 -0.433917,0.68791 -0.264583,0.22225 -0.719667,0.22225 z m 0.709084,-1.44991 q 0.275166,0 0.359833,-0.2646 0.08467,-0.27515 0.08467,-0.73024 v -0.32809 -2.91041 q 0,-0.33867 -0.09525,-0.5715 -0.09525,-0.23284 -0.338664,-0.23284 -0.275166,0 -0.370416,0.22225 -0.08467,0.21167 -0.08467,0.58209 v 3.25966 q 0,0.97368 0.4445,0.97368 z"
       style="font-style:normal;font-variant:normal;font-weight:normal;font-stretch:normal;font-size:10.58333302px;line-height:1.25;font-family:Anton;-inkscape-font-specification:Anton;letter-spacing:0px;word-spacing:0px;fill:#000000;fill-opacity:1;stroke:none;stroke-width:0.07000434"
       id="path4599"
       inkscape:connector-curvature="0" />
    <path
       d="m -13.986733,152.71742 q -1.195917,0 -1.7145,-0.65616 -0.518583,-0.65618 -0.518583,-1.95793 v -3.1115 q 0,-1.06891 0.613833,-1.62983 0.613833,-0.56092 1.7145,-0.56092 2.233083,0 2.233083,2.19075 v 0.56092 q 0,0.84667 -0.02117,1.37583 h -2.688164 v 1.50284 q 0,0.40216 0.08467,0.63499 0.08467,0.22225 0.359833,0.22225 0.211667,0 0.296334,-0.127 0.09525,-0.127 0.105833,-0.28575 0.02117,-0.16933 0.02117,-0.48683 v -0.75141 h 1.8415 v 0.4445 q 0,1.35466 -0.529167,2.00024 -0.518583,0.63501 -1.799167,0.63501 z m 0.486833,-4.70959 V 147.013 q 0,-0.83608 -0.41275,-0.83608 -0.465666,0 -0.465666,0.83608 v 0.99483 z"
       style="font-style:normal;font-variant:normal;font-weight:normal;font-stretch:normal;font-size:10.58333302px;line-height:1.25;font-family:Anton;-inkscape-font-specification:Anton;letter-spacing:0px;word-spacing:0px;fill:#000000;fill-opacity:1;stroke:none;stroke-width:0.07000434"
       id="path4601"
       inkscape:connector-curvature="0" />
    <path
       d="m -10.004423,152.63276 -1.23825,-7.74701 h 1.8520831 l 0.381,3.91583 0.0635,1.25942 0.07408,-1.27 0.423333,-3.90525 h 1.852084 l -1.259417,7.74701 z"
       style="font-style:normal;font-variant:normal;font-weight:normal;font-stretch:normal;font-size:10.58333302px;line-height:1.25;font-family:Anton;-inkscape-font-specification:Anton;letter-spacing:0px;word-spacing:0px;fill:#000000;fill-opacity:1;stroke:none;stroke-width:0.07000434"
       id="path4603"
       inkscape:connector-curvature="0" />
    <path
       d="m -3.9408349,152.71742 q -1.195916,0 -1.7145,-0.65616 -0.518583,-0.65618 -0.518583,-1.95793 v -3.1115 q 0,-1.06891 0.613833,-1.62983 0.613834,-0.56092 1.7145,-0.56092 2.233084,0 2.233084,2.19075 v 0.56092 q 0,0.84667 -0.02117,1.37583 h -2.688167 v 1.50284 q 0,0.40216 0.08467,0.63499 0.08467,0.22225 0.359833,0.22225 0.211667,0 0.296333,-0.127 0.09525,-0.127 0.105834,-0.28575 0.02117,-0.16933 0.02117,-0.48683 v -0.75141 h 1.8415 v 0.4445 q 0,1.35466 -0.529166,2.00024 -0.518584,0.63501 -1.799167,0.63501 z m 0.486834,-4.70959 V 147.013 q 0,-0.83608 -0.41275,-0.83608 -0.465667,0 -0.465667,0.83608 v 0.99483 z"
       style="font-style:normal;font-variant:normal;font-weight:normal;font-stretch:normal;font-size:10.58333302px;line-height:1.25;font-family:Anton;-inkscape-font-specification:Anton;letter-spacing:0px;word-spacing:0px;fill:#000000;fill-opacity:1;stroke:none;stroke-width:0.07000434"
       id="path4605"
       inkscape:connector-curvature="0" />
    <path
       d="m -0.94277486,152.63276 v -9.14401 h 1.883834 v 9.14401 z"
       style="font-style:normal;font-variant:normal;font-weight:normal;font-stretch:normal;font-size:10.58333302px;line-height:1.25;font-family:Anton;-inkscape-font-specification:Anton;letter-spacing:0px;word-spacing:0px;fill:#000000;fill-opacity:1;stroke:none;stroke-width:0.07000434"
       id="path4607"
       inkscape:connector-curvature="0" />
    <path
       d="m 3.9366391,152.71742 q -2.31775,0 -2.31775,-2.40242 v -3.1115 q 0,-1.10067 0.613828,-1.74625 0.624422,-0.65617 1.703922,-0.65617 1.0795,0 1.693328,0.65617 0.624422,0.64558 0.624422,1.74625 v 3.1115 q 0,2.40242 -2.31775,2.40242 z m 0,-1.42876 q 0.22225,0 0.328078,-0.15875 0.105831,-0.15875 0.105831,-0.4339 v -3.78884 q 0,-0.67734 -0.433909,-0.67734 -0.433922,0 -0.433922,0.67734 v 3.78884 q 0,0.27515 0.105831,0.4339 0.105841,0.15875 0.328091,0.15875 z"
       style="font-style:normal;font-variant:normal;font-weight:normal;font-stretch:normal;font-size:10.58333302px;line-height:1.25;font-family:Anton;-inkscape-font-specification:Anton;letter-spacing:0px;word-spacing:0px;fill:#000000;fill-opacity:1;stroke:none;stroke-width:0.07000434"
       id="path4609"
       inkscape:connector-curvature="0" />
    <path
       d="m 6.9327181,144.88575 h 1.88383 v 0.41275 q 0.40217,-0.49742 1.11125,-0.49742 0.8995809,0 1.2488309,0.60325 0.359839,0.60325 0.359839,1.67217 v 2.86808 q 0,0.91018 -0.105839,1.49225 -0.105831,0.5715 -0.465661,0.93134 -0.359839,0.34925 -1.0900889,0.34925 -0.6985,0 -1.058331,-0.39159 v 1.85208 h -1.88383 z m 2.32833,6.39233 q 0.254,0 0.328081,-0.23282 0.0741,-0.23285 0.0741,-0.67734 v -3.29142 q 0,-0.40217 -0.0741,-0.61383 -0.0741,-0.21167 -0.338661,-0.21167 -0.43392,0 -0.43392,0.80433 v 3.39725 q 0,0.39158 0.0847,0.61383 0.0952,0.21167 0.359831,0.21167 z"
       style="font-style:normal;font-variant:normal;font-weight:normal;font-stretch:normal;font-size:10.58333302px;line-height:1.25;font-family:Anton;-inkscape-font-specification:Anton;letter-spacing:0px;word-spacing:0px;fill:#000000;fill-opacity:1;stroke:none;stroke-width:0.07000434"
       id="path4611"
       inkscape:connector-curvature="0" />
    <path
       d="m 14.39396,152.71742 q -1.195912,0 -1.7145,-0.65616 -0.518581,-0.65618 -0.518581,-1.95793 v -3.1115 q 0,-1.06891 0.613831,-1.62983 0.613838,-0.56092 1.7145,-0.56092 2.233088,0 2.233088,2.19075 v 0.56092 q 0,0.84667 -0.02119,1.37583 h -2.688172 v 1.50284 q 0,0.40216 0.0847,0.63499 0.0847,0.22225 0.359831,0.22225 0.211669,0 0.296339,-0.127 0.0952,-0.127 0.10583,-0.28575 0.02119,-0.16933 0.02119,-0.48683 v -0.75141 h 1.8415 v 0.4445 q 0,1.35466 -0.529172,2.00024 -0.518578,0.63501 -1.799169,0.63501 z m 0.486838,-4.70959 V 147.013 q 0,-0.83608 -0.41275,-0.83608 -0.465669,0 -0.465669,0.83608 v 0.99483 z"
       style="font-style:normal;font-variant:normal;font-weight:normal;font-stretch:normal;font-size:10.58333302px;line-height:1.25;font-family:Anton;-inkscape-font-specification:Anton;letter-spacing:0px;word-spacing:0px;fill:#000000;fill-opacity:1;stroke:none;stroke-width:0.07000434"
       id="path4613"
       inkscape:connector-curvature="0" />
    <path
       d="m 17.39202,144.88575 h 1.852078 v 0.85725 q 0.137591,-0.45508 0.47625,-0.6985 0.34925,-0.254 0.85725,-0.254 v 1.54517 q -0.391578,0 -0.867828,0.11641 -0.465672,0.10584 -0.465672,0.254 v 5.92668 H 17.39202 Z"
       style="font-style:normal;font-variant:normal;font-weight:normal;font-stretch:normal;font-size:10.58333302px;line-height:1.25;font-family:Anton;-inkscape-font-specification:Anton;letter-spacing:0px;word-spacing:0px;fill:#000000;fill-opacity:1;stroke:none;stroke-width:0.07000434"
       id="path4615"
       inkscape:connector-curvature="0" />
  </g>
</svg>
